<?xml version="1.0" encoding="UTF-8"?><svg id="Laag_2" xmlns="http://www.w3.org/2000/svg" viewBox="0 0 945.45 967.08"><defs><style>.cls-1{fill:#fff;opacity:.9;}</style></defs><g id="Laag_1-2"><path class="cls-1" d="m25.02,677.32c-3.54-28.14-46.54-138.12-11.11-289.7,25.13-107.54,91.99-198.84,135.13-230.85,23.22-14.21,58.71,98.01,57.78,111.83-.65,9.74-9.95,18.96-17.33,26.72-15.28,16.08-28.7,41.47-37.99,61.6-49.13,106.46-33.87,232.89,11.2,306.28-.26,5.66,15.53,12.44,13.58,16.58-.35,1.42,4.73,9.82,13.75,23.84,115.97,141.93,299.24,174.84,444.97,91.8,13.51-7.7,25.12-16.69,36.08-24.21,27.51-23.04,23.95-19.51,56.3-54.05,20.03-21.39,12.5-8.8,23.01-22.24,4.85-6.2,23.16-38.39,39.49-72.91,2.95-6.23,12.14-30.6,14.7-39.87,34.8-125.97.43-178.06-23.29-240.51-43.97-115.77-145.94-187.25-246.9-205.43-9.07-1.63-15.91-1.74-19.41-1.37-6.89.72-11.73-.65-11.46-2.87-29.28-7.39-106.32-5.18-154.66,8-.56.15-15.58,4.21-15.96,3.78-1.93-1.69-7.46-1.4-11.5,1.99,0,0-26.51,11.21-72.55,39.58-38.45,27.78-41.03,30.19-63.07,51.58-12.44,12.07-20.35,20.74-22.2,20.18-9.96-3.01-26.09-21.01-38.18-43.92-12.03-22.8-19.5-51.1-15.67-67.52,3.71-15.89,27.4-35.54,40.48-45.42,25.37-19.17,40.4-25.55,51.5-31.53,34.08-18.38,87.67-38.33,122.74-47.71,111.28-29.75,203.32-31.99,323.41,20.61,138.74,60.76,240.27,195.25,283.17,334.64-2.34,12.08,23.18,72.23,11.21,105.32-1.31,3.62-2.14,12.8-3.14,24.74-2.75,32.87-15,108.92-26.6,140.63-8.46,23.11-21.4,49.3-26.65,58.5-64.13,112.22-163.48,200.19-309.77,244.46-4.75,1.44-42.45,9.48-51.4,10.6-9.71,1.21-18.05,2.66-24.81,3.95-6.79,1.29-11.97,1.68-15.34,2.67-27.47-3.04-283.95-4.73-421.28-219.55-25.44-39.79-16.21-24.82-29.44-51.44-3.56-7.17-6.92-13.35-8.79-18.78Z"/><path class="cls-1" d="m315.06,66.09c17.42,5.12,68.02-50.38,78-50.11,7.01,2.16,59.04,87.44,64.42,101.51,1.92,5.04,1.06,6.58-3.44,6.64-8.13-.54-58.38,43.8-64.32,49.47-2.74-1.84,1.42,8.02-1.44,5.45-8.46-7.59-95.1,77.68-103.41,85.36-4.64,4.29-4.81-3.29-8.91,3.28-8.63,13.84-38.09,33.21-42.94,45.36-3.88,9.71-5.38,10.97-14.69,14.87-9.37,3.93-42.31,42.22-40.77,51.09.4,2.29-.82,2.58-2.47,1.08,0,0-26.64,23.54-27.65,22.83-1.84-1.29-3.4-1.18-2.94.55.29,2.76-18.83,35.68-24.25,31.99-15.43-10.52-72.23-64.68-83.8-80.41-6.15-8.36-.47-13.65,7.44-19.74,7.93-6.11,18.12-12.81,20.75-24.54,27.51-28.72,33.71-35.19,69.07-69.53l10.04-19.64c6.44,3.1,1.46-14.95,14.08-10.34,5.06,1.85,18-8.77,17.3-14.84-.07-2.39,17.61-15.96,35.31-30.42,17.7-14.46,35.51-29.73,34.52-37.58,17.41-.96,52.31-43.13,70.12-62.35Z"/><path class="cls-1" d="m426.7,129.38c20.02,2.52,92.65-71.49,101.28-72.71,8.42.76,63.02,84.62,67.69,99.54,1.69,5.32.36,7.34-5.39,8.63-9.55,1.47-90.8,73.59-90.8,73.59-3.09-1.56,0,9.17-2.99,6.7-7.49-5.36-140.73,109.51-152.41,118.91-7.08,5.7-5.09-3.33-12.14,5-15.26,17.44-57.91,43.67-68.29,58.33-8.22,11.86-10.54,13.73-23.43,18.87-12.89,5.61-67.66,52.57-69.9,62.96-.41,2.71-2.07,3.1-3.47,1.36-.29-.36-41.98,28.89-43.25,27.67-1.7-1.49-3.59-1.4-3.79.66-.68,3.39-38.74,42.44-43.49,37.88-13.67-12.84-56.84-78.71-63.78-97.44-7.63-19.81,34.98-23.1,49.99-49.79l105.03-80.28,17.89-22.99c6.75,3.26,6.3-17.32,19.75-12.56,5.5,1.77,23.95-11.18,24.81-18.07,1.04-5.62,99.29-67.14,100.4-84.66,23.82-3.88,82.15-67.6,96.29-81.6Z"/><path class="cls-1" d="m506.67,196.12c20.08,2.53,93.44-71.66,102.11-72.89,8.45.76,62.74,84.83,67.34,99.78,1.66,5.33.32,7.36-5.46,8.65-9.6,1.47-91.59,73.77-91.59,73.77-3.09-1.56-.05,9.2-3.05,6.72-7.48-5.37-141.94,109.77-153.71,119.19-7.14,5.72-5.09-3.34-12.21,5.02-15.43,17.48-58.4,43.77-68.91,58.47-8.32,11.89-10.66,13.76-23.64,18.91-12.97,5.62-68.24,52.7-70.55,63.12-.42,2.72-2.1,3.11-3.49,1.37-.29-.36-42.31,28.95-43.58,27.73-1.69-1.5-3.6-1.4-3.8.67-.7,3.4-39.14,42.55-43.89,37.97-13.64-12.87-56.57-78.9-63.42-97.68-7.53-19.86,35.25-23.15,50.48-49.91l105.92-80.47,18.1-23.05c6.75,3.27,6.43-17.36,19.9-12.59,5.51,1.78,24.11-11.2,25.02-18.12,1.08-5.63,100.07-67.3,101.29-84.86,23.93-3.89,82.87-67.77,97.15-81.8Z"/><path class="cls-1" d="m595.94,259.78c20.67,2.36,99.83-74.23,108.85-75.59,8.71.69,61.2,85.95,65.3,101.18,1.49,5.43,0,7.51-6.03,8.9-10,1.61-98.01,76.37-98.01,76.37-3.13-1.56-.45,9.39-3.45,6.9-7.51-5.4-151.68,113.7-164.28,123.46-7.64,5.92-5.12-3.35-12.86,5.26-16.73,18.02-62.35,45.36-73.86,60.49-9.13,12.24-11.64,14.18-25.29,19.58-13.67,5.88-72.92,54.59-75.77,65.26-.56,2.78-2.31,3.2-3.67,1.43-.29-.37-45.05,30.05-46.31,28.81-1.69-1.51-3.66-1.39-3.96.72-.88,3.48-42.37,43.89-47.08,39.28-13.55-13-55.08-79.97-61.35-99.08-6.93-20.2,37.49-24.04,54.43-51.54l113.13-83.38,19.74-23.74c6.85,3.26,7.41-17.81,21.14-13.08,5.62,1.75,25.44-11.71,26.68-18.78,1.36-5.76,106.5-69.86,108.54-87.81,24.94-4.24,88.72-70.14,104.12-84.64Z"/><path class="cls-1" d="m630.75,311.49c21.45,2.2,108.53-77.16,118.02-78.64,9.05.61,59,87.5,62.41,103.06,1.24,5.55-.43,7.7-6.81,9.19-10.53,1.76-106.74,79.33-106.74,79.33-3.18-1.57-1.02,9.64-4,7.11-7.53-5.46-164.95,118.17-178.67,128.3-8.32,6.15-5.16-3.38-13.73,5.53-18.5,18.66-67.72,47.16-80.61,62.79-10.24,12.65-12.97,14.66-27.53,20.34-14.61,6.18-79.29,56.73-82.88,67.7-.74,2.86-2.59,3.3-3.92,1.51-.28-.37-48.78,31.28-50.02,30.03-1.68-1.53-3.75-1.39-4.18.78-1.11,3.57-46.77,45.45-51.43,40.76-13.41-13.18-52.95-81.42-58.4-100.95-6.08-20.64,40.54-25.04,59.8-53.42l122.94-86.67,21.98-24.55c6.96,3.27,8.76-18.34,22.83-13.64,5.77,1.74,27.24-12.27,28.94-19.54,1.75-5.92,115.24-72.74,118.4-91.17,26.29-4.61,96.69-72.84,113.6-87.87Z"/><path class="cls-1" d="m667.22,391.96c22.76,2.07,86.27-75.02,96.65-76.91,8.48.2,68.68,80.02,74.19,94.74,1.96,5.24.73,7.39-5.04,9.15-5.7,1.32-43.98,37.23-48.26,41.22-21.25,19.79-41.81,38.77-41.81,38.77-3.16-1.46.1,9.28-2.99,6.9-5.02-3.32-152.82,118.11-157.76,121.81-7.5,5.63-4.96-3.43-12.65,4.73-16.38,17.39-61.79,41.98-73.54,56.11-20.17,24.25-7.65,1.05-68.05,44.73-17.34,12.54-33.47,25.73-35.31,30.77-.75,2.68-2.49,2.91-3.7,1.04,0,0-46.38,24.61-47.5,23.29-1.47-1.72-3.39-1.79-3.92.24-.92,3.51-45.51,37.81-49.62,32.65-11.66-14.67-44.82-86.14-49.27-105.59-2.37-10.35,6.95-14.77,19.22-19.74,12.25-4.96,27.34-10.67,36.33-22.9,44.81-26.88,54.5-32.65,111.42-69.12l19.27-21.55c6.52,3.73,7.25-16.52,20.33-11.15,5.32,2.18,24.29-9.71,25.59-16.48.54-2.86,26.02-18.2,51.22-35.54,25.21-17.34,50.07-36.74,50.72-45.37,25.97-4.13,86.05-73.21,94.47-81.81Z"/><path class="cls-1" d="m683.36,481.2c18.41,4.86,85.8-56.83,93.75-56.95,7.74,1.76,57.4,88.5,61.6,103.32,1.52,5.28.28,7.05-5.02,7.58-8.81.23-84.11,59.07-84.11,59.07-2.83-1.87-.06,8.76-2.8,6.03-6.85-6.03-130.34,87.21-141.15,94.75-6.56,4.57-4.66-3.8-11.21,3.28-14.17,14.76-53.62,34.56-63.28,47.27-7.65,10.31-9.8,11.81-21.7,15.13-11.9,3.77-62.66,41.86-64.8,51.5-.39,2.54-1.93,2.7-3.2.87-.27-.38-38.85,22.41-40.01,21.09-1.55-1.64-3.3-1.78-3.49.17-.65,3.15-35.96,35.74-40.31,30.81-12.49-13.93-51.76-82.1-58.01-100.83-6.88-19.84,32.36-17.74,46.37-41.37l97.26-63.71,16.64-19.74c6.19,3.94,5.92-15.76,18.27-9.56,5.05,2.37,22.12-7.72,22.97-14.2,1-5.23,91.88-51.87,93.03-68.45,21.96-.77,76.1-54.42,89.22-66.04Z"/><path class="cls-1" d="m737.14,536.59c16.52,5.92,67.99-46.53,74.87-46.04,6.92,2.23,59.82,86.86,65.13,100.99,1.91,5.04,1.04,6.6-3.5,6.69-7.61-.45-66.27,48.75-66.27,48.75-2.67-1.96.94,8.16-1.75,5.41-6.63-6.14-103.18,71.51-111.71,77.72-5.17,3.77-4.48-3.9-9.35,2.22-10.62,12.7-42.6,28.18-49.54,39.31-5.47,9.04-7.16,10.27-17.11,12.47-9.9,2.62-49.61,34.31-50.38,43.14-.05,2.34-1.37,2.37-2.68.57-.27-.38-31.16,17.97-32.32,16.65-1.53-1.64-3.06-1.9-3.01-.11-.21,2.89-27.15,30.62-31.48,25.69-12.41-13.93-54.2-80.47-61.74-98.41-8.21-19.03,26.06-14.11,35.54-35.09l77.15-52.08,12.19-17.16c5.81,4.14,3.35-14.25,14.76-7.54,4.65,2.59,18.32-5.53,18.32-11.51.27-4.8,73.82-41.45,72.94-56.82,18.96.93,59.85-45.01,69.92-54.87Z"/><path class="cls-1" d="m765.47,615.63c14.88,7.08,54-36.62,59.99-35.5,6.21,2.73,60.59,86.31,66.63,99.93,2.17,4.86,1.57,6.22-2.34,5.86-6.63-1.15-52.28,38.83-52.28,38.83-2.51-2.07,1.65,7.66-.96,4.85-6.36-6.33-81.85,56.39-88.59,61.33-4.08,3-4.27-4.04-7.85,1.16-7.88,10.76-33.93,22.04-38.79,31.69-3.8,7.86-5.14,8.84-13.51,9.92-8.29,1.47-39.36,27.05-39.12,35.16.19,2.16-.94,2.07-2.26.27-.28-.38-25.09,13.67-26.22,12.33-1.49-1.67-2.84-2.06-2.61-.39.12,2.66-20.33,25.79-24.57,20.8-12.16-14.12-55.08-79.84-63.43-97.2-9.05-18.43,21.08-10.58,27.12-29.12l61.35-40.88,8.78-14.74c5.45,4.4,1.44-12.89,11.99-5.57,4.28,2.85,15.26-3.37,14.65-8.91-.26-4.43,59.56-31.34,57.22-45.68,16.48,2.69,47.12-35.99,54.81-44.16Z"/><path d="m410.07,600.8c1-10,2-19,3-28,2-12,5-23,6-34v-6c0-1,1-5,1-6,1-7,6-33,7-37l15-84c5-24,8-48,14-72,2-10,15-29,22-39l2-2c3-1,12,1,13,3,1,1,3,4,4,5,1,18,4,36,3,54,0,7-2,14-3,20l-6,36c-4,29-9,59-14,89-4,21-7,43-10,64-1,5-4,27-5,31l-1,2c-2,10-2,19-2,29,0,1-1,4-1,5,0,2-1,11-1,13v25c-2,4-8,5-12,4-3,0-15-4-15-6,0,0-3-1-4-1s-6,1-7,0c-7-2-12-12-12-19-1-15,1-31,3-46Z"/></g></svg>